# xmcd
#
# Track frame offsets: 
#        150
#        14705
#        28450
#        48739
#        61211
#        74516
#        87803
#        100775
#        115419
#        129410
#        140775
#        161797
#        176431
#        190407
#        204898
#        217768
#        232010
#        248502
#
# Disc length: 3506 seconds
#
# Revision: 0
# Processed by: cddbd v1.5.2PL0 Copyright (c) Steve Scherf et al.
# Submitted via: ExactAudioCopy v0.95a5
#
DISCID=090db012
DTITLE=Marshall Brothers and High Road, The - Thanks Again
DYEAR=2008
DGENRE=Bluegrass
TTITLE0=Nellie Kane
TTITLE1=Sharecropper's Son
TTITLE2=I've Just Seen the Rock of Ages
TTITLE3=I'll Be True While You're Gone
TTITLE4=Will the Roses Bloom
TTITLE5=Little Black Train
TTITLE6=Matterhorn
TTITLE7=Gun Powder
TTITLE8=Riding My Thumb to Mexico
TTITLE9=Carolina Mountain Home
TTITLE10=What Would You Give
TTITLE11=Nobody's Darlin' But Mine
TTITLE12=Thanks Again
TTITLE13=Heart of a Mountain Girl
TTITLE14=Can't Go Back
TTITLE15=Your Love Is Like a Flower
TTITLE16=Coming Home
TTITLE17=Swing Low
EXTD=
EXTT0=
EXTT1=
EXTT2=
EXTT3=
EXTT4=
EXTT5=
EXTT6=
EXTT7=
EXTT8=
EXTT9=
EXTT10=
EXTT11=
EXTT12=
EXTT13=
EXTT14=
EXTT15=
EXTT16=
EXTT17=
PLAYORDER=
